<?xml version="1.0" encoding="UTF-8" standalone="no"?>
<!-- Created with Inkscape (http://www.inkscape.org/) -->

<svg
   inkscape:version="1.2.2 (b0a8486541, 2022-12-01)"
   sodipodi:docname="lendl-2-roll.svg"
   id="svg5"
   version="1.1"
   viewBox="0 0 50.50005 45.79129"
   height="45.79129mm"
   width="50.50005mm"
   xmlns:inkscape="http://www.inkscape.org/namespaces/inkscape"
   xmlns:sodipodi="http://sodipodi.sourceforge.net/DTD/sodipodi-0.dtd"
   xmlns="http://www.w3.org/2000/svg"
   xmlns:svg="http://www.w3.org/2000/svg">
  <sodipodi:namedview
     id="namedview7"
     pagecolor="#ffffff"
     bordercolor="#666666"
     borderopacity="1.0"
     inkscape:showpageshadow="2"
     inkscape:pageopacity="0.0"
     inkscape:pagecheckerboard="0"
     inkscape:deskcolor="#d1d1d1"
     inkscape:document-units="mm"
     showgrid="false"
     inkscape:zoom="6.3043212"
     inkscape:cx="-27.758738"
     inkscape:cy="80.738272"
     inkscape:window-width="3840"
     inkscape:window-height="2079"
     inkscape:window-x="0"
     inkscape:window-y="0"
     inkscape:window-maximized="1"
     inkscape:current-layer="layer1" />
  <defs
     id="defs2">
    <linearGradient
       id="linearGradient4721"
       inkscape:swatch="solid">
      <stop
         style="stop-color:#000000;stop-opacity:1;"
         offset="0"
         id="stop4719" />
    </linearGradient>
    <linearGradient
       id="linearGradient4595"
       inkscape:swatch="solid">
      <stop
         style="stop-color:#0000ff;stop-opacity:1;"
         offset="0"
         id="stop4593" />
    </linearGradient>
    <linearGradient
       id="linearGradient3748"
       inkscape:swatch="solid">
      <stop
         style="stop-color:#00ff9b;stop-opacity:1;"
         offset="0"
         id="stop3746" />
    </linearGradient>
    <filter
       style="color-interpolation-filters:sRGB"
       inkscape:label="Blur"
       id="filter4573"
       x="-0.023338459"
       y="-0.093450062"
       width="1.0466769"
       height="1.1869001">
      <feGaussianBlur
         stdDeviation="0.1 0.1"
         result="blur"
         id="feGaussianBlur4571" />
    </filter>
    <marker
       style="overflow:visible"
       id="TriangleStart"
       refX="3"
       refY="0"
       orient="auto-start-reverse"
       inkscape:stockid="TriangleStart"
       markerWidth="5.3244081"
       markerHeight="6.155385"
       viewBox="0 0 5.3244081 6.1553851"
       inkscape:isstock="true"
       inkscape:collect="always"
       preserveAspectRatio="xMidYMid">
      <path
         transform="scale(0.5)"
         style="fill:context-stroke;fill-rule:evenodd;stroke:context-stroke;stroke-width:1pt"
         d="M 5.77,0 -2.88,5 V -5 Z"
         id="path135" />
    </marker>
    <marker
       style="overflow:visible"
       id="marker5084"
       refX="3"
       refY="0"
       orient="auto-start-reverse"
       inkscape:stockid="TriangleStart"
       markerWidth="5.3244081"
       markerHeight="6.155385"
       viewBox="0 0 5.3244081 6.1553851"
       inkscape:isstock="true"
       inkscape:collect="always"
       preserveAspectRatio="xMidYMid">
      <path
         transform="scale(0.5)"
         style="fill:context-stroke;fill-rule:evenodd;stroke:context-stroke;stroke-width:1pt"
         d="M 5.77,0 -2.88,5 V -5 Z"
         id="path5082" />
    </marker>
  </defs>
  <g
     inkscape:label="Layer 1"
     inkscape:groupmode="layer"
     id="layer1"
     transform="translate(-77.668392,-17.765596)">
    <path
       id="path548"
       style="display:inline;fill:#ff0000;fill-opacity:0.5;stroke:#800000;stroke-width:0.15"
       d="m 102.91853,29.352486 a 11.308728,11.308728 0 0 0 -10.249503,6.535518 v 9.546187 a 11.308728,11.308728 0 0 0 10.249503,6.535519 11.308728,11.308728 0 0 0 10.24899,-6.54017 l -0.002,-9.550838 a 11.308728,11.308728 0 0 0 -10.24744,-6.526216 z" />
    <path
       id="path560"
       style="fill:#0000ff;fill-opacity:0.50190645;stroke:#000080;stroke-width:0.15"
       d="M 92.672127 35.881803 A 11.308728 11.308728 0 0 0 92.669027 35.888004 L 92.669027 45.434191 A 11.308728 11.308728 0 0 0 92.672644 45.440909 A 15 8 0 0 0 93.604887 45.87034 A 15 8 0 0 0 94.620846 46.264115 A 15 8 0 0 0 95.694682 46.611381 A 15 8 0 0 0 96.819678 46.909554 A 15 8 0 0 0 97.987048 47.156567 A 15 8 0 0 0 99.189042 47.350353 A 15 8 0 0 0 100.41739 47.490397 A 15 8 0 0 0 101.66383 47.574629 A 15 8 0 0 0 102.91853 47.603051 A 15 8 0 0 0 104.17323 47.574629 A 15 8 0 0 0 105.41915 47.490397 A 15 8 0 0 0 106.6475 47.350353 A 15 8 0 0 0 107.85001 47.156567 A 15 8 0 0 0 109.01738 46.909554 A 15 8 0 0 0 110.14186 46.611381 A 15 8 0 0 0 111.21622 46.264115 A 15 8 0 0 0 112.23166 45.87034 A 15 8 0 0 0 113.1608 45.44246 A 11.308728 11.308728 0 0 0 113.16752 45.42954 L 113.16597 35.878702 A 15 8 0 0 0 112.23734 35.451338 A 15 8 0 0 0 111.22087 35.057047 A 15 8 0 0 0 110.146 34.709781 A 15 8 0 0 0 109.02048 34.411608 A 15 8 0 0 0 107.8526 34.165112 A 15 8 0 0 0 106.64957 33.971325 A 15 8 0 0 0 105.4207 33.831799 A 15 8 0 0 0 104.17375 33.747566 A 15 8 0 0 0 102.91853 33.719661 A 15 8 0 0 0 101.66383 33.748083 A 15 8 0 0 0 100.41739 33.832316 A 15 8 0 0 0 99.189042 33.971842 A 15 8 0 0 0 97.987048 34.165629 A 15 8 0 0 0 96.819678 34.412642 A 15 8 0 0 0 95.694682 34.710815 A 15 8 0 0 0 94.620846 35.058081 A 15 8 0 0 0 93.604887 35.451855 A 15 8 0 0 0 92.672127 35.881803 z " />
    <g
       id="g488"
       transform="translate(54.772158,-8.5221911)">
      <path
         id="path12466"
         style="fill:none;stroke:#000000;stroke-width:0.499999"
         d="m 23.146233,51.829267 v 19.99981 H 34.85973 a 15,8 0 0 1 13.286527,-4.29586 15,8 0 0 1 13.294279,4.29586 H 73.146282 V 51.829267 H 61.432785 a 15,8 0 0 1 -13.286528,4.29586 15,8 0 0 1 -13.286527,-4.29586 z" />
      <path
         id="path12468"
         style="fill:none;stroke:#000000;stroke-width:0.499999"
         d="m 23.146233,26.537787 v 19.99981 H 34.85973 a 15,8 0 0 1 13.286527,-4.29586 15,8 0 0 1 13.294279,4.29586 H 73.146282 V 26.537787 H 61.432785 a 15,8 0 0 1 -13.286528,4.29586 15,8 0 0 1 -13.286527,-4.29586 z" />
    </g>
    <g
       inkscape:label="A1L"
       transform="translate(94.376916,38.170726)"
       id="g4464"
       style="fill:#000080"><g
   fill="#000000"
   fill-opacity="1"
   id="g4450"
   transform="matrix(0.352778,0,0,0.352778,-0.170877,0.152179)"
   style="fill:#000080">
    <g
   id="g4448"
   transform="translate(0,9.8030005)"
   style="fill:#000080">
      <path
   d="M 2.4375,-1.59375 C 1.9375,-0.75 1.453125,-0.453125 0.765625,-0.421875 0.609375,-0.40625 0.484375,-0.40625 0.484375,-0.140625 0.484375,-0.0625 0.5625,0 0.65625,0 0.921875,0 1.5625,-0.03125 1.828125,-0.03125 2.234375,-0.03125 2.703125,0 3.09375,0 3.1875,0 3.359375,0 3.359375,-0.265625 c 0,-0.140625 -0.125,-0.15625 -0.203125,-0.15625 C 2.828125,-0.4375 2.546875,-0.5625 2.546875,-0.90625 c 0,-0.203125 0.09375,-0.359375 0.28125,-0.671875 l 1.09375,-1.8125 h 3.65625 c 0.015625,0.140625 0.015625,0.25 0.03125,0.375 0.03125,0.375 0.203125,1.875 0.203125,2.140625 0,0.4375 -0.734375,0.453125 -0.953125,0.453125 -0.15625,0 -0.3125,0 -0.3125,0.265625 C 6.546875,0 6.671875,0 6.75,0 7,0 7.28125,-0.03125 7.53125,-0.03125 h 0.8125 C 9.21875,-0.03125 9.859375,0 9.875,0 c 0.09375,0 0.25,0 0.25,-0.265625 0,-0.15625 -0.125,-0.15625 -0.34375,-0.15625 -0.78125,0 -0.796875,-0.125 -0.84375,-0.546875 l -0.875,-8.953125 c -0.03125,-0.296875 -0.09375,-0.3125 -0.25,-0.3125 -0.140625,0 -0.21875,0.01563 -0.359375,0.234375 z M 4.15625,-3.796875 7.046875,-8.625 7.53125,-3.796875 Z m 0,0"
   id="path4446"
   style="fill:#000080" />

    </g>

  </g>

  
<g
   fill="#000000"
   fill-opacity="1"
   id="g4460"
   transform="matrix(0.35277801,0,0,0.35277801,-0.17087808,0.15217901)"
   style="fill:#000080">
      <g
   id="g4454"
   transform="translate(10.53,11.955)"
   style="fill:#000080">
        <path
   d="m 2.9375,-6.375 c 0,-0.25 0,-0.265625 -0.234375,-0.265625 C 2.078125,-6 1.203125,-6 0.890625,-6 v 0.3125 c 0.203125,0 0.78125,0 1.296875,-0.265625 v 5.171875 c 0,0.359375 -0.03125,0.46875 -0.921875,0.46875 h -0.3125 V 0 c 0.34375,-0.03125 1.203125,-0.03125 1.609375,-0.03125 0.390625,0 1.265625,0 1.609375,0.03125 v -0.3125 h -0.3125 c -0.90625,0 -0.921875,-0.109375 -0.921875,-0.46875 z m 0,0"
   id="path4452"
   style="fill:#000080" />

      </g>

      <g
   id="g4458"
   transform="translate(15.5113,11.955)"
   style="fill:#000080">
        <path
   d="m 5.796875,-2.578125 h -0.25 c -0.109375,1.015625 -0.25,2.265625 -2,2.265625 h -0.8125 C 2.265625,-0.3125 2.25,-0.375 2.25,-0.703125 v -5.3125 C 2.25,-6.359375 2.25,-6.5 3.1875,-6.5 H 3.515625 V -6.8125 C 3.15625,-6.78125 2.25,-6.78125 1.84375,-6.78125 c -0.390625,0 -1.171875,0 -1.515625,-0.03125 V -6.5 H 0.5625 c 0.765625,0 0.796875,0.109375 0.796875,0.46875 v 5.25 c 0,0.359375 -0.03125,0.46875 -0.796875,0.46875 H 0.328125 V 0 h 5.1875 z m 0,0"
   id="path4456"
   style="fill:#000080" />

      </g>

    </g>
</g>
    <g
       inkscape:label="A0L"
       transform="translate(107.79196,26.004465)"
       id="g4278"
       style="fill:#800000"><g
   fill="#000000"
   fill-opacity="1"
   id="g22"
   transform="matrix(0.352778,0,0,0.352778,-0.170877,0.152179)"
   style="fill:#800000">
    <g
   id="use20"
   transform="translate(0,9.8030005)"
   style="fill:#800000">
      <path
   d="M 2.4375,-1.59375 C 1.9375,-0.75 1.453125,-0.453125 0.765625,-0.421875 0.609375,-0.40625 0.484375,-0.40625 0.484375,-0.140625 0.484375,-0.0625 0.5625,0 0.65625,0 0.921875,0 1.5625,-0.03125 1.828125,-0.03125 2.234375,-0.03125 2.703125,0 3.09375,0 3.1875,0 3.359375,0 3.359375,-0.265625 c 0,-0.140625 -0.125,-0.15625 -0.203125,-0.15625 C 2.828125,-0.4375 2.546875,-0.5625 2.546875,-0.90625 c 0,-0.203125 0.09375,-0.359375 0.28125,-0.671875 l 1.09375,-1.8125 h 3.65625 c 0.015625,0.140625 0.015625,0.25 0.03125,0.375 0.03125,0.375 0.203125,1.875 0.203125,2.140625 0,0.4375 -0.734375,0.453125 -0.953125,0.453125 -0.15625,0 -0.3125,0 -0.3125,0.265625 C 6.546875,0 6.671875,0 6.75,0 7,0 7.28125,-0.03125 7.53125,-0.03125 h 0.8125 C 9.21875,-0.03125 9.859375,0 9.875,0 c 0.09375,0 0.25,0 0.25,-0.265625 0,-0.15625 -0.125,-0.15625 -0.34375,-0.15625 -0.78125,0 -0.796875,-0.125 -0.84375,-0.546875 l -0.875,-8.953125 c -0.03125,-0.296875 -0.09375,-0.3125 -0.25,-0.3125 -0.140625,0 -0.21875,0.01563 -0.359375,0.234375 z M 4.15625,-3.796875 7.046875,-8.625 7.53125,-3.796875 Z m 0,0"
   id="path36"
   style="fill:#800000" />

    </g>

  </g>

  
<g
   fill="#000000"
   fill-opacity="1"
   id="g28"
   transform="matrix(0.35277801,0,0,0.35277801,-0.17087771,0.15217779)"
   style="fill:#800000">
      <g
   id="use24"
   transform="translate(10.53,11.955)"
   style="fill:#800000">
        <path
   d="m 4.578125,-3.1875 c 0,-0.796875 -0.046875,-1.59375 -0.390625,-2.328125 -0.453125,-0.96875 -1.28125,-1.125 -1.6875,-1.125 -0.609375,0 -1.328125,0.265625 -1.75,1.1875 -0.3125,0.6875 -0.359375,1.46875 -0.359375,2.265625 0,0.75 0.03125,1.640625 0.453125,2.40625 0.421875,0.796875 1.15625,1 1.640625,1 0.53125,0 1.296875,-0.203125 1.734375,-1.15625 0.3125,-0.6875 0.359375,-1.46875 0.359375,-2.25 z M 2.484375,0 C 2.09375,0 1.5,-0.25 1.328125,-1.203125 1.21875,-1.796875 1.21875,-2.71875 1.21875,-3.3125 c 0,-0.640625 0,-1.296875 0.078125,-1.828125 0.1875,-1.1875 0.9375,-1.28125 1.1875,-1.28125 0.328125,0 0.984375,0.1875 1.171875,1.171875 0.109375,0.5625 0.109375,1.3125 0.109375,1.9375 0,0.75 0,1.421875 -0.109375,2.0625 C 3.5,-0.296875 2.9375,0 2.484375,0 Z m 0,0"
   id="path40"
   style="fill:#800000" />

      </g>

      <g
   id="use26"
   transform="translate(15.5113,11.955)"
   style="fill:#800000">
        <path
   d="m 5.796875,-2.578125 h -0.25 c -0.109375,1.015625 -0.25,2.265625 -2,2.265625 h -0.8125 C 2.265625,-0.3125 2.25,-0.375 2.25,-0.703125 v -5.3125 C 2.25,-6.359375 2.25,-6.5 3.1875,-6.5 H 3.515625 V -6.8125 C 3.15625,-6.78125 2.25,-6.78125 1.84375,-6.78125 c -0.390625,0 -1.171875,0 -1.515625,-0.03125 V -6.5 H 0.5625 c 0.765625,0 0.796875,0.109375 0.796875,0.46875 v 5.25 c 0,0.359375 -0.03125,0.46875 -0.796875,0.46875 H 0.328125 V 0 h 5.1875 z m 0,0"
   id="path44"
   style="fill:#800000" />

      </g>

    </g>
</g>
    <g
       id="g6770"
       inkscape:label="wL"
       transform="translate(-2.5390635,-12.193675)"
       style="display:inline">
      <path
         style="fill:none;stroke:#000000;stroke-width:0.15;stroke-linecap:butt;stroke-linejoin:miter;stroke-dasharray:none;stroke-opacity:1"
         d="m 95.211441,57.635055 v 9.742111"
         id="path5608" />
      <path
         style="fill:none;stroke:#000000;stroke-width:0.15;stroke-linecap:butt;stroke-linejoin:miter;stroke-dasharray:none;stroke-opacity:1"
         d="m 115.70658,57.623215 v 9.742111"
         id="path5634" />
      <path
         style="fill:none;stroke:#000000;stroke-width:0.15;stroke-linecap:butt;stroke-linejoin:miter;stroke-dasharray:none;stroke-opacity:1;marker-start:url(#TriangleStart);marker-end:url(#marker5084)"
         d="M 95.211441,66.444118 H 115.70658"
         id="path5676"
         sodipodi:nodetypes="cc" />
      <g
         inkscape:label="wL"
         transform="translate(107.47361,67.17196)"
         id="g6331"><g
   fill="#000000"
   fill-opacity="1"
   id="g19"
   transform="matrix(0.352778,0,0,0.352778,-0.137804,0.0533135)">
    <g
   id="use17"
   transform="translate(0,6.177)">
      <path
   d="m 4.9375,-0.875 c 0.3125,0.859375 1.203125,1.015625 1.75,1.015625 1.09375,0 1.734375,-0.9375 2.140625,-1.9375 C 9.15625,-2.625 9.6875,-4.515625 9.6875,-5.359375 c 0,-0.875 -0.453125,-0.96875 -0.578125,-0.96875 -0.34375,0 -0.65625,0.34375 -0.65625,0.640625 0,0.171875 0.09375,0.265625 0.171875,0.328125 0.125,0.125 0.5,0.515625 0.5,1.25 0,0.5 -0.40625,1.84375 -0.703125,2.515625 -0.40625,0.875 -0.9375,1.453125 -1.6875,1.453125 C 5.9375,-0.140625 5.6875,-0.75 5.6875,-1.40625 c 0,-0.421875 0.125,-0.921875 0.171875,-1.15625 L 6.46875,-4.984375 c 0.078125,-0.28125 0.203125,-0.78125 0.203125,-0.84375 C 6.671875,-6.03125 6.5,-6.1875 6.28125,-6.1875 c -0.421875,0 -0.515625,0.359375 -0.59375,0.703125 -0.15625,0.5625 -0.75,2.984375 -0.8125,3.296875 -0.0625,0.25 -0.0625,0.40625 -0.0625,0.71875 0,0.34375 -0.453125,0.890625 -0.46875,0.921875 -0.15625,0.15625 -0.390625,0.40625 -0.828125,0.40625 C 2.375,-0.140625 2.375,-1.21875 2.375,-1.46875 c 0,-0.453125 0.109375,-1.078125 0.75,-2.796875 0.171875,-0.4375 0.25,-0.625 0.25,-0.90625 0,-0.609375 -0.4375,-1.15625 -1.140625,-1.15625 -1.3125,0 -1.84375,2.078125 -1.84375,2.203125 0,0.046875 0.046875,0.125 0.15625,0.125 0.125,0 0.140625,-0.0625 0.203125,-0.265625 0.359375,-1.25 0.90625,-1.765625 1.4375,-1.765625 0.15625,0 0.375,0 0.375,0.46875 0,0.0625 0,0.375 -0.234375,1 C 1.65625,-2.765625 1.5,-2.1875 1.5,-1.640625 c 0,1.515625 1.234375,1.78125 1.96875,1.78125 0.25,0 0.890625,0 1.46875,-1.015625 z m 0,0"
   id="path31" />

    </g>

  </g>

  
<g
   fill="#000000"
   fill-opacity="1"
   id="g23"
   transform="matrix(0.35277801,0,0,0.35277801,-0.1378036,0.05331235)">
      <g
   id="use21"
   transform="translate(10.041,8.3290005)">
        <path
   d="m 5.796875,-2.578125 h -0.25 c -0.109375,1.015625 -0.25,2.265625 -2,2.265625 h -0.8125 C 2.265625,-0.3125 2.25,-0.375 2.25,-0.703125 v -5.3125 C 2.25,-6.359375 2.25,-6.5 3.1875,-6.5 H 3.515625 V -6.8125 C 3.15625,-6.78125 2.25,-6.78125 1.84375,-6.78125 c -0.390625,0 -1.171875,0 -1.515625,-0.03125 V -6.5 H 0.5625 c 0.765625,0 0.796875,0.109375 0.796875,0.46875 v 5.25 c 0,0.359375 -0.03125,0.46875 -0.796875,0.46875 H 0.328125 V 0 h 5.1875 z m 0,0"
   id="path35" />

      </g>

    </g>
</g>
    </g>
    <path
       style="display:inline;fill:none;stroke:#000000;stroke-width:0.264583px;stroke-linecap:butt;stroke-linejoin:miter;stroke-dasharray:2.11666, 0.529166, 0.264583, 0.529166;stroke-dashoffset:0;stroke-opacity:1"
       d="M 102.91842,20.661241 V 60.661239"
       id="path2392" />
    <circle
       style="fill:none;fill-opacity:0.6;stroke:#4d4d4d;stroke-width:0.15"
       id="path326"
       cx="102.91827"
       cy="40.661354"
       r="11.308728" />
  </g>
</svg>
