<?xml version="1.0" encoding="UTF-8" standalone="no"?>
<!-- Created with Inkscape (http://www.inkscape.org/) -->

<svg
   width="68.22522mm"
   height="64.362175mm"
   viewBox="0 0 68.22522 64.362175"
   version="1.1"
   id="svg5"
   sodipodi:docname="directions-three-roll.svg"
   inkscape:version="1.2.2 (b0a8486541, 2022-12-01)"
   xml:space="preserve"
   xmlns:inkscape="http://www.inkscape.org/namespaces/inkscape"
   xmlns:sodipodi="http://sodipodi.sourceforge.net/DTD/sodipodi-0.dtd"
   xmlns="http://www.w3.org/2000/svg"
   xmlns:svg="http://www.w3.org/2000/svg"><sodipodi:namedview
     id="namedview7"
     pagecolor="#ffffff"
     bordercolor="#666666"
     borderopacity="1.0"
     inkscape:showpageshadow="2"
     inkscape:pageopacity="0.0"
     inkscape:pagecheckerboard="0"
     inkscape:deskcolor="#d1d1d1"
     inkscape:document-units="mm"
     showgrid="false"
     inkscape:zoom="5.6568543"
     inkscape:cx="48.436814"
     inkscape:cy="96.520075"
     inkscape:window-width="3840"
     inkscape:window-height="2079"
     inkscape:window-x="0"
     inkscape:window-y="0"
     inkscape:window-maximized="1"
     inkscape:current-layer="g5504" /><defs
     id="defs2"><marker
   style="overflow:visible"
   id="marker5084"
   refX="3"
   refY="0"
   orient="auto-start-reverse"
   inkscape:stockid="TriangleStart"
   markerWidth="5.3244081"
   markerHeight="6.155385"
   viewBox="0 0 5.3244081 6.1553851"
   inkscape:isstock="true"
   inkscape:collect="always"
   preserveAspectRatio="xMidYMid"><path
     transform="scale(0.5)"
     style="fill:context-stroke;fill-rule:evenodd;stroke:context-stroke;stroke-width:1pt"
     d="M 5.77,0 -2.88,5 V -5 Z"
     id="path5082" /></marker><marker
   style="overflow:visible"
   id="TriangleStart"
   refX="3"
   refY="0"
   orient="auto-start-reverse"
   inkscape:stockid="TriangleStart"
   markerWidth="5.3244081"
   markerHeight="6.155385"
   viewBox="0 0 5.3244081 6.1553851"
   inkscape:isstock="true"
   inkscape:collect="always"
   preserveAspectRatio="xMidYMid"><path
     transform="scale(0.5)"
     style="fill:context-stroke;fill-rule:evenodd;stroke:context-stroke;stroke-width:1pt"
     d="M 5.77,0 -2.88,5 V -5 Z"
     id="path135" /></marker><filter
   style="color-interpolation-filters:sRGB"
   inkscape:label="Blur"
   id="filter4573"
   x="-0.023338459"
   y="-0.093450062"
   width="1.0466769"
   height="1.1869001"><feGaussianBlur
     stdDeviation="0.1 0.1"
     result="blur"
     id="feGaussianBlur4571" /></filter><clipPath
   id="clipPath5667"><path
     clip-rule="nonzero"
     d="m 2,8 h 5 v 6.886719 H 2 Z m 0,0"
     id="path734" /></clipPath><clipPath
   id="clipPath5843"><path
     clip-rule="nonzero"
     d="m 2,10 h 5 v 7.515625 H 2 Z m 0,0"
     id="path116" /></clipPath><clipPath
   id="clipPath9401">
      <path
   clip-rule="nonzero"
   d="m 6,11 h 5 v 6.808594 H 6 Z m 0,0"
   id="path5152" />
    </clipPath>
  <clipPath
   id="clipPath4205">
      <path
   clip-rule="nonzero"
   d="m 4,12 h 5 v 7.355469 H 4 Z m 0,0"
   id="path6320" />
    </clipPath>
  <clipPath
   id="clipPath4296">
      <path
   clip-rule="nonzero"
   d="m 4,12 h 5 v 7.355469 H 4 Z m 0,0"
   id="path3633" />
    </clipPath>
  <clipPath
   id="clipPath6793">
      <path
   clip-rule="nonzero"
   d="m 10,5 h 12 v 6.953125 H 10 Z m 0,0"
   id="path2297" />
    </clipPath>
  <clipPath
   id="clipPath681">
      <path
   clip-rule="nonzero"
   d="m 11,5 h 11 v 6.953125 H 11 Z m 0,0"
   id="path8013" />
    </clipPath>
  <clipPath
   id="clipPath1405">
      <path
   clip-rule="nonzero"
   d="m 10,1 h 6 v 7.328125 h -6 z m 0,0"
   id="path3356" />
    </clipPath>
  </defs><g
     inkscape:label="Layer 1"
     inkscape:groupmode="layer"
     id="layer1"
     transform="translate(-71.3427, -14.969)"><g
       id="g5604"
       inkscape:label="A0"><path
         id="path568"
         style="display:inline;fill:#ff0000;fill-opacity:0.60000002;stroke:#800000;stroke-width:0.200001;stroke-dasharray:none"
         inkscape:transform-center-x="-0.00032607472"
         inkscape:transform-center-y="0.92633244"
         d="m 110.65141,34.351279 -5.19555,2.999817 V 49.24236 l 10.018,5.784143 5.46065,-3.101102 a 8.6441552,16.207908 29.999357 0 0 0.13539,-0.38654 8.6441552,16.207908 29.999357 0 0 0.40462,-1.32395 8.6441552,16.207908 29.999357 0 0 0.31988,-1.305347 8.6441552,16.207908 29.999357 0 0 0.23254,-1.275891 8.6441552,16.207908 29.999357 0 0 0.14367,-1.2361 8.6441552,16.207908 29.999357 0 0 0.0527,-1.185975 8.6441552,16.207908 29.999357 0 0 -0.01,-0.291455 17.288248,17.288498 0 0 0 0,-5.16e-4 17.288248,17.288498 0 0 0 -1.78542,-4.396114 17.288248,17.288498 0 0 0 -2.9714,-3.787366 16.207732,8.6442488 0 0 0 -0.18397,-0.114722 16.207732,8.6442488 0 0 0 -1.0542,-0.546737 16.207732,8.6442488 0 0 0 -1.14256,-0.493509 16.207732,8.6442488 0 0 0 -1.22267,-0.436666 16.207732,8.6442488 0 0 0 -1.29087,-0.375688 16.207732,8.6442488 0 0 0 -1.34979,-0.311092 16.207732,8.6442488 0 0 0 -0.56121,-0.106454 z"
         inkscape:label="A0L" /><g
         inkscape:label="A0L"
         transform="translate(111.40943,46.649434)"
         id="g4278"
         style="fill:#800000"><g
   fill="#000000"
   fill-opacity="1"
   id="g22"
   transform="matrix(0.352778,0,0,0.352778,-0.170877,0.152179)"
   style="fill:#800000">
    <g
   id="use20"
   transform="translate(0,9.8030005)"
   style="fill:#800000">
      <path
   d="M 2.4375,-1.59375 C 1.9375,-0.75 1.453125,-0.453125 0.765625,-0.421875 0.609375,-0.40625 0.484375,-0.40625 0.484375,-0.140625 0.484375,-0.0625 0.5625,0 0.65625,0 0.921875,0 1.5625,-0.03125 1.828125,-0.03125 2.234375,-0.03125 2.703125,0 3.09375,0 3.1875,0 3.359375,0 3.359375,-0.265625 c 0,-0.140625 -0.125,-0.15625 -0.203125,-0.15625 C 2.828125,-0.4375 2.546875,-0.5625 2.546875,-0.90625 c 0,-0.203125 0.09375,-0.359375 0.28125,-0.671875 l 1.09375,-1.8125 h 3.65625 c 0.015625,0.140625 0.015625,0.25 0.03125,0.375 0.03125,0.375 0.203125,1.875 0.203125,2.140625 0,0.4375 -0.734375,0.453125 -0.953125,0.453125 -0.15625,0 -0.3125,0 -0.3125,0.265625 C 6.546875,0 6.671875,0 6.75,0 7,0 7.28125,-0.03125 7.53125,-0.03125 h 0.8125 C 9.21875,-0.03125 9.859375,0 9.875,0 c 0.09375,0 0.25,0 0.25,-0.265625 0,-0.15625 -0.125,-0.15625 -0.34375,-0.15625 -0.78125,0 -0.796875,-0.125 -0.84375,-0.546875 l -0.875,-8.953125 c -0.03125,-0.296875 -0.09375,-0.3125 -0.25,-0.3125 -0.140625,0 -0.21875,0.01563 -0.359375,0.234375 z M 4.15625,-3.796875 7.046875,-8.625 7.53125,-3.796875 Z m 0,0"
   id="path36"
   style="fill:#800000" />
    </g>
  </g>
  
<g
   fill="#000000"
   fill-opacity="1"
   id="g28"
   transform="matrix(0.35277801,0,0,0.35277801,-0.17087771,0.15217779)"
   style="fill:#800000">
      <g
   id="use24"
   transform="translate(10.53,11.955)"
   style="fill:#800000">
        <path
   d="m 4.578125,-3.1875 c 0,-0.796875 -0.046875,-1.59375 -0.390625,-2.328125 -0.453125,-0.96875 -1.28125,-1.125 -1.6875,-1.125 -0.609375,0 -1.328125,0.265625 -1.75,1.1875 -0.3125,0.6875 -0.359375,1.46875 -0.359375,2.265625 0,0.75 0.03125,1.640625 0.453125,2.40625 0.421875,0.796875 1.15625,1 1.640625,1 0.53125,0 1.296875,-0.203125 1.734375,-1.15625 0.3125,-0.6875 0.359375,-1.46875 0.359375,-2.25 z M 2.484375,0 C 2.09375,0 1.5,-0.25 1.328125,-1.203125 1.21875,-1.796875 1.21875,-2.71875 1.21875,-3.3125 c 0,-0.640625 0,-1.296875 0.078125,-1.828125 0.1875,-1.1875 0.9375,-1.28125 1.1875,-1.28125 0.328125,0 0.984375,0.1875 1.171875,1.171875 0.109375,0.5625 0.109375,1.3125 0.109375,1.9375 0,0.75 0,1.421875 -0.109375,2.0625 C 3.5,-0.296875 2.9375,0 2.484375,0 Z m 0,0"
   id="path40"
   style="fill:#800000" />
      </g>
      <g
   id="use26"
   transform="translate(15.5113,11.955)"
   style="fill:#800000">
        <path
   d="m 5.796875,-2.578125 h -0.25 c -0.109375,1.015625 -0.25,2.265625 -2,2.265625 h -0.8125 C 2.265625,-0.3125 2.25,-0.375 2.25,-0.703125 v -5.3125 C 2.25,-6.359375 2.25,-6.5 3.1875,-6.5 H 3.515625 V -6.8125 C 3.15625,-6.78125 2.25,-6.78125 1.84375,-6.78125 c -0.390625,0 -1.171875,0 -1.515625,-0.03125 V -6.5 H 0.5625 c 0.765625,0 0.796875,0.109375 0.796875,0.46875 v 5.25 c 0,0.359375 -0.03125,0.46875 -0.796875,0.46875 H 0.328125 V 0 h 5.1875 z m 0,0"
   id="path44"
   style="fill:#800000" />
      </g>
    </g></g></g><g
       id="g5592"
       inkscape:label="A1"><path
         id="path617"
         style="display:inline;fill:#0000ff;fill-opacity:0.60000002;stroke:#000080;stroke-width:0.200001;stroke-dasharray:none"
         inkscape:transform-center-x="-0.00032607472"
         inkscape:transform-center-y="0.92633244"
         d="m 105.45586,49.24236 -10.014889,5.782076 v 6.29729 a 15,8 0 0 0 0.701249,0.322978 15,8 0 0 0 1.015959,0.393774 15,8 0 0 0 1.073836,0.347266 15,8 0 0 0 1.124996,0.298173 15,8 0 0 0 1.167369,0.247013 15,8 0 0 0 1.202,0.193787 15,8 0 0 0 1.22834,0.139526 15,8 0 0 0 1.24644,0.08475 15,8 0 0 0 1.2547,0.02842 15,8 0 0 0 1.25471,-0.02842 15,8 0 0 0 1.24592,-0.08475 15,8 0 0 0 1.22834,-0.139526 15,8 0 0 0 1.20252,-0.193787 15,8 0 0 0 1.16737,-0.247013 15,8 0 0 0 1.12447,-0.298173 15,8 0 0 0 1.07436,-0.347266 15,8 0 0 0 1.01544,-0.393774 15,8 0 0 0 0.70487,-0.324528 v -6.293673 z"
         inkscape:label="A1L" /><g
         inkscape:label="A1L"
         transform="translate(106.5782,55.2147)"
         id="g4464"
         style="fill:#000080"><g
   fill="#000000"
   fill-opacity="1"
   id="g4450"
   transform="matrix(0.352778,0,0,0.352778,-0.170877,0.152179)"
   style="fill:#000080">
    <g
   id="g4448"
   transform="translate(0,9.8030005)"
   style="fill:#000080">
      <path
   d="M 2.4375,-1.59375 C 1.9375,-0.75 1.453125,-0.453125 0.765625,-0.421875 0.609375,-0.40625 0.484375,-0.40625 0.484375,-0.140625 0.484375,-0.0625 0.5625,0 0.65625,0 0.921875,0 1.5625,-0.03125 1.828125,-0.03125 2.234375,-0.03125 2.703125,0 3.09375,0 3.1875,0 3.359375,0 3.359375,-0.265625 c 0,-0.140625 -0.125,-0.15625 -0.203125,-0.15625 C 2.828125,-0.4375 2.546875,-0.5625 2.546875,-0.90625 c 0,-0.203125 0.09375,-0.359375 0.28125,-0.671875 l 1.09375,-1.8125 h 3.65625 c 0.015625,0.140625 0.015625,0.25 0.03125,0.375 0.03125,0.375 0.203125,1.875 0.203125,2.140625 0,0.4375 -0.734375,0.453125 -0.953125,0.453125 -0.15625,0 -0.3125,0 -0.3125,0.265625 C 6.546875,0 6.671875,0 6.75,0 7,0 7.28125,-0.03125 7.53125,-0.03125 h 0.8125 C 9.21875,-0.03125 9.859375,0 9.875,0 c 0.09375,0 0.25,0 0.25,-0.265625 0,-0.15625 -0.125,-0.15625 -0.34375,-0.15625 -0.78125,0 -0.796875,-0.125 -0.84375,-0.546875 l -0.875,-8.953125 c -0.03125,-0.296875 -0.09375,-0.3125 -0.25,-0.3125 -0.140625,0 -0.21875,0.01563 -0.359375,0.234375 z M 4.15625,-3.796875 7.046875,-8.625 7.53125,-3.796875 Z m 0,0"
   id="path4446"
   style="fill:#000080" />
    </g>
  </g>
  
<g
   fill="#000000"
   fill-opacity="1"
   id="g4460"
   transform="matrix(0.35277801,0,0,0.35277801,-0.17087808,0.15217901)"
   style="fill:#000080">
      <g
   id="g4454"
   transform="translate(10.53,11.955)"
   style="fill:#000080">
        <path
   d="m 2.9375,-6.375 c 0,-0.25 0,-0.265625 -0.234375,-0.265625 C 2.078125,-6 1.203125,-6 0.890625,-6 v 0.3125 c 0.203125,0 0.78125,0 1.296875,-0.265625 v 5.171875 c 0,0.359375 -0.03125,0.46875 -0.921875,0.46875 h -0.3125 V 0 c 0.34375,-0.03125 1.203125,-0.03125 1.609375,-0.03125 0.390625,0 1.265625,0 1.609375,0.03125 v -0.3125 h -0.3125 c -0.90625,0 -0.921875,-0.109375 -0.921875,-0.46875 z m 0,0"
   id="path4452"
   style="fill:#000080" />
      </g>
      <g
   id="g4458"
   transform="translate(15.5113,11.955)"
   style="fill:#000080">
        <path
   d="m 5.796875,-2.578125 h -0.25 c -0.109375,1.015625 -0.25,2.265625 -2,2.265625 h -0.8125 C 2.265625,-0.3125 2.25,-0.375 2.25,-0.703125 v -5.3125 C 2.25,-6.359375 2.25,-6.5 3.1875,-6.5 H 3.515625 V -6.8125 C 3.15625,-6.78125 2.25,-6.78125 1.84375,-6.78125 c -0.390625,0 -1.171875,0 -1.515625,-0.03125 V -6.5 H 0.5625 c 0.765625,0 0.796875,0.109375 0.796875,0.46875 v 5.25 c 0,0.359375 -0.03125,0.46875 -0.796875,0.46875 H 0.328125 V 0 h 5.1875 z m 0,0"
   id="path4456"
   style="fill:#000080" />
      </g>
    </g></g></g><g
       id="g5572"
       inkscape:label="h1"><path
         style="fill:#0000ff;stroke:#000080;stroke-width:0.264583px;stroke-linecap:butt;stroke-linejoin:miter;stroke-opacity:1;fill-opacity:0.29890257"
         d="m 92.197087,41.587327 -5.007449,8.673107 8.251275,4.763902 10.014947,-5.781976 z"
         id="path632" /><g
         id="g5400"><g
           inkscape:label="h'1"
           transform="translate(92.749707,46.396811)"
           id="g2668"
           style="fill:#000080"><g
   fill="#000000"
   fill-opacity="1"
   id="g2644"
   transform="matrix(0.352778,0,0,0.352778,-0.42168,0.00586491)"
   style="fill:#000080">
    <g
   id="g2642"
   transform="translate(1.196,7.4899998)"
   style="fill:#000080">
      <path
   d="m 2.859375,-6.8125 c 0,0 0,-0.109375 -0.125,-0.109375 -0.234375,0 -0.953125,0.078125 -1.21875,0.109375 -0.078125,0 -0.1875,0.015625 -0.1875,0.1875 0,0.125 0.09375,0.125 0.234375,0.125 0.484375,0 0.5,0.0625 0.5,0.171875 L 2.03125,-6.125 0.59375,-0.390625 c -0.046875,0.140625 -0.046875,0.15625 -0.046875,0.21875 0,0.234375 0.203125,0.28125 0.296875,0.28125 0.15625,0 0.3125,-0.125 0.359375,-0.265625 l 0.1875,-0.75 0.21875,-0.890625 C 1.671875,-2.03125 1.734375,-2.25 1.78125,-2.46875 1.796875,-2.53125 1.890625,-2.859375 1.890625,-2.921875 1.921875,-3.015625 2.234375,-3.5625 2.578125,-3.84375 2.796875,-4 3.09375,-4.1875 3.53125,-4.1875 c 0.421875,0 0.53125,0.34375 0.53125,0.703125 0,0.53125 -0.375,1.625 -0.609375,2.234375 C 3.375,-1.03125 3.3125,-0.90625 3.3125,-0.703125 c 0,0.46875 0.359375,0.8125 0.828125,0.8125 0.9375,0 1.296875,-1.453125 1.296875,-1.53125 0,-0.109375 -0.078125,-0.109375 -0.109375,-0.109375 -0.109375,0 -0.109375,0.03125 -0.15625,0.1875 -0.140625,0.53125 -0.46875,1.234375 -1.015625,1.234375 -0.171875,0 -0.234375,-0.09375 -0.234375,-0.328125 0,-0.25 0.078125,-0.484375 0.171875,-0.703125 0.15625,-0.4375 0.609375,-1.625 0.609375,-2.203125 0,-0.640625 -0.390625,-1.0625 -1.140625,-1.0625 -0.625,0 -1.109375,0.3125 -1.484375,0.765625 z m 0,0"
   id="path2640"
   style="fill:#000080" />
    </g>
  </g>
  <g
   fill="#000000"
   fill-opacity="1"
   id="g2650"
   transform="matrix(0.352778,0,0,0.352778,-0.42168,0.00586491)"
   style="fill:#000080">
    <g
   id="g2648"
   transform="translate(6.9359999,3.8740001)"
   style="fill:#000080">
      <path
   d="m 2.015625,-3.296875 c 0.0625,-0.109375 0.0625,-0.171875 0.0625,-0.21875 0,-0.21875 -0.1875,-0.375 -0.40625,-0.375 -0.265625,0 -0.34375,0.21875 -0.375,0.328125 L 0.375,-0.546875 c -0.015625,0.015625 -0.046875,0.09375 -0.046875,0.109375 0,0.078125 0.21875,0.15625 0.28125,0.15625 0.046875,0 0.046875,-0.015625 0.09375,-0.125 z m 0,0"
   id="path2646"
   style="fill:#000080" />
    </g>
  </g>
  <g
   fill="#000000"
   fill-opacity="1"
   id="g2656"
   transform="matrix(0.352778,0,0,0.352778,-0.42168,0.00586491)"
   style="fill:#000080">
    <g
   id="g2654"
   transform="translate(6.9359999,9.9630003)"
   style="fill:#000080">
      <path
   d="m 2.328125,-4.4375 c 0,-0.1875 0,-0.1875 -0.203125,-0.1875 -0.453125,0.4375 -1.078125,0.4375 -1.359375,0.4375 v 0.25 c 0.15625,0 0.625,0 1,-0.1875 v 3.546875 c 0,0.234375 0,0.328125 -0.6875,0.328125 H 0.8125 V 0 c 0.125,0 0.984375,-0.03125 1.234375,-0.03125 0.21875,0 1.09375,0.03125 1.25,0.03125 V -0.25 H 3.03125 c -0.703125,0 -0.703125,-0.09375 -0.703125,-0.328125 z m 0,0"
   id="path2652"
   style="fill:#000080" />
    </g>
  </g>
  <path
   fill="none"
   stroke-width="0.574"
   stroke-linecap="butt"
   stroke-linejoin="miter"
   stroke="#000000"
   stroke-opacity="1"
   stroke-miterlimit="10"
   d="M 0,10.840844 H 10.210937"
   id="path2658"
   transform="scale(0.352778)"
   style="fill:#000080;stroke:#000080" />
  
<g
   fill="#000000"
   fill-opacity="1"
   id="g2664"
   transform="matrix(0.35277801,0,0,0.35277801,-0.42167989,0.00586491)"
   style="fill:#000080">
      <g
   id="g2662"
   transform="translate(3.8099999,19.357)"
   style="fill:#000080">
        <path
   d="m 1.265625,-0.765625 1.0625,-1.03125 c 1.546875,-1.375 2.140625,-1.90625 2.140625,-2.90625 0,-1.140625 -0.890625,-1.9375 -2.109375,-1.9375 -1.125,0 -1.859375,0.921875 -1.859375,1.8125 0,0.546875 0.5,0.546875 0.53125,0.546875 0.171875,0 0.515625,-0.109375 0.515625,-0.53125 0,-0.25 -0.1875,-0.515625 -0.53125,-0.515625 -0.078125,0 -0.09375,0 -0.125,0.015625 0.21875,-0.65625 0.765625,-1.015625 1.34375,-1.015625 0.90625,0 1.328125,0.8125 1.328125,1.625 C 3.5625,-3.90625 3.078125,-3.125 2.515625,-2.5 l -1.90625,2.125 C 0.5,-0.265625 0.5,-0.234375 0.5,0 H 4.203125 L 4.46875,-1.734375 H 4.234375 C 4.171875,-1.4375 4.109375,-1 4,-0.84375 3.9375,-0.765625 3.28125,-0.765625 3.0625,-0.765625 Z m 0,0"
   id="path2660"
   style="fill:#000080" />
      </g>
    </g></g><path
           style="fill:none;stroke:#000080;stroke-width:0.15;stroke-linecap:butt;stroke-linejoin:miter;stroke-opacity:1;stroke-dasharray:none;marker-start:url(#TriangleStart);marker-end:url(#marker5084)"
           d="M 104.66891,50.605067 91.410262,42.95014"
           id="path4861" /><path
           style="fill:none;stroke:#000080;stroke-width:0.15;stroke-linecap:butt;stroke-linejoin:miter;stroke-opacity:1;stroke-dasharray:none"
           d="m 105.45586,49.24236 -1.04507,1.809774"
           id="path5364" /></g></g><g
       id="g5536"
       inkscape:label="h0"><path
         style="fill:#ff0000;stroke:#800000;stroke-width:0.264583px;stroke-linecap:butt;stroke-linejoin:miter;stroke-opacity:1;fill-opacity:0.30155039"
         d="m 91.232225,41.030261 14.223535,8.211967 3e-5,-11.891277 -9.074473,-5.239177 z"
         id="path630"
         sodipodi:nodetypes="ccccc" /><g
         id="g5434"><g
           inkscape:label="h'0"
           transform="translate(99.835486,36.64115)"
           id="g2497"
           style="fill:#800000"><g
   fill="#000000"
   fill-opacity="1"
   id="g27"
   transform="matrix(0.352778,0,0,0.352778,-0.42168,0.00586491)"
   style="fill:#800000">
    <g
   id="use25"
   transform="translate(1.196,7.4899998)"
   style="fill:#800000">
      <path
   d="m 2.859375,-6.8125 c 0,0 0,-0.109375 -0.125,-0.109375 -0.234375,0 -0.953125,0.078125 -1.21875,0.109375 -0.078125,0 -0.1875,0.015625 -0.1875,0.1875 0,0.125 0.09375,0.125 0.234375,0.125 0.484375,0 0.5,0.0625 0.5,0.171875 L 2.03125,-6.125 0.59375,-0.390625 c -0.046875,0.140625 -0.046875,0.15625 -0.046875,0.21875 0,0.234375 0.203125,0.28125 0.296875,0.28125 0.15625,0 0.3125,-0.125 0.359375,-0.265625 l 0.1875,-0.75 0.21875,-0.890625 C 1.671875,-2.03125 1.734375,-2.25 1.78125,-2.46875 1.796875,-2.53125 1.890625,-2.859375 1.890625,-2.921875 1.921875,-3.015625 2.234375,-3.5625 2.578125,-3.84375 2.796875,-4 3.09375,-4.1875 3.53125,-4.1875 c 0.421875,0 0.53125,0.34375 0.53125,0.703125 0,0.53125 -0.375,1.625 -0.609375,2.234375 C 3.375,-1.03125 3.3125,-0.90625 3.3125,-0.703125 c 0,0.46875 0.359375,0.8125 0.828125,0.8125 0.9375,0 1.296875,-1.453125 1.296875,-1.53125 0,-0.109375 -0.078125,-0.109375 -0.109375,-0.109375 -0.109375,0 -0.109375,0.03125 -0.15625,0.1875 -0.140625,0.53125 -0.46875,1.234375 -1.015625,1.234375 -0.171875,0 -0.234375,-0.09375 -0.234375,-0.328125 0,-0.25 0.078125,-0.484375 0.171875,-0.703125 0.15625,-0.4375 0.609375,-1.625 0.609375,-2.203125 0,-0.640625 -0.390625,-1.0625 -1.140625,-1.0625 -0.625,0 -1.109375,0.3125 -1.484375,0.765625 z m 0,0"
   id="path49"
   style="fill:#800000" />
    </g>
  </g>
  <g
   fill="#000000"
   fill-opacity="1"
   id="g31"
   transform="matrix(0.352778,0,0,0.352778,-0.42168,0.00586491)"
   style="fill:#800000">
    <g
   id="use29"
   transform="translate(6.9359999,3.8740001)"
   style="fill:#800000">
      <path
   d="m 2.015625,-3.296875 c 0.0625,-0.109375 0.0625,-0.171875 0.0625,-0.21875 0,-0.21875 -0.1875,-0.375 -0.40625,-0.375 -0.265625,0 -0.34375,0.21875 -0.375,0.328125 L 0.375,-0.546875 c -0.015625,0.015625 -0.046875,0.09375 -0.046875,0.109375 0,0.078125 0.21875,0.15625 0.28125,0.15625 0.046875,0 0.046875,-0.015625 0.09375,-0.125 z m 0,0"
   id="path53"
   style="fill:#800000" />
    </g>
  </g>
  <g
   fill="#000000"
   fill-opacity="1"
   id="g35"
   transform="matrix(0.352778,0,0,0.352778,-0.42168,0.00586491)"
   style="fill:#800000">
    <g
   id="use33"
   transform="translate(6.9359999,9.9630003)"
   style="fill:#800000">
      <path
   d="M 3.59375,-2.21875 C 3.59375,-2.984375 3.5,-3.546875 3.1875,-4.03125 2.96875,-4.34375 2.53125,-4.625 1.984375,-4.625 c -1.625,0 -1.625,1.90625 -1.625,2.40625 0,0.5 0,2.359375 1.625,2.359375 1.609375,0 1.609375,-1.859375 1.609375,-2.359375 z M 1.984375,-0.0625 c -0.328125,0 -0.75,-0.1875 -0.890625,-0.75 C 1,-1.21875 1,-1.796875 1,-2.3125 1,-2.828125 1,-3.359375 1.09375,-3.734375 1.25,-4.28125 1.6875,-4.4375 1.984375,-4.4375 c 0.375,0 0.734375,0.234375 0.859375,0.640625 0.109375,0.375 0.125,0.875 0.125,1.484375 0,0.515625 0,1.03125 -0.09375,1.46875 -0.140625,0.640625 -0.609375,0.78125 -0.890625,0.78125 z m 0,0"
   id="path57"
   style="fill:#800000" />
    </g>
  </g>
  <path
   fill="none"
   stroke-width="0.574"
   stroke-linecap="butt"
   stroke-linejoin="miter"
   stroke="#000000"
   stroke-opacity="1"
   stroke-miterlimit="10"
   d="M 0,10.840844 H 10.210937"
   id="path37"
   transform="scale(0.352778)"
   style="fill:#800000;stroke:#800000" />
  
<g
   fill="#000000"
   fill-opacity="1"
   id="g41"
   transform="matrix(0.35277801,0,0,0.35277801,-0.42168,0.00586498)"
   style="fill:#800000">
      <g
   id="use39"
   transform="translate(3.8099999,19.357)"
   style="fill:#800000">
        <path
   d="m 1.265625,-0.765625 1.0625,-1.03125 c 1.546875,-1.375 2.140625,-1.90625 2.140625,-2.90625 0,-1.140625 -0.890625,-1.9375 -2.109375,-1.9375 -1.125,0 -1.859375,0.921875 -1.859375,1.8125 0,0.546875 0.5,0.546875 0.53125,0.546875 0.171875,0 0.515625,-0.109375 0.515625,-0.53125 0,-0.25 -0.1875,-0.515625 -0.53125,-0.515625 -0.078125,0 -0.09375,0 -0.125,0.015625 0.21875,-0.65625 0.765625,-1.015625 1.34375,-1.015625 0.90625,0 1.328125,0.8125 1.328125,1.625 C 3.5625,-3.90625 3.078125,-3.125 2.515625,-2.5 l -1.90625,2.125 C 0.5,-0.265625 0.5,-0.234375 0.5,0 H 4.203125 L 4.46875,-1.734375 H 4.234375 C 4.171875,-1.4375 4.109375,-1 4,-0.84375 3.9375,-0.765625 3.28125,-0.765625 3.0625,-0.765625 Z m 0,0"
   id="path61"
   style="fill:#800000" />
      </g>
    </g></g><path
           style="fill:none;stroke:#800000;stroke-width:0.15;stroke-linecap:butt;stroke-linejoin:miter;stroke-opacity:1;stroke-dasharray:none;marker-start:url(#TriangleStart);marker-end:url(#marker5084)"
           d="M 106.28485,47.80621 92.061311,39.594241"
           id="path4863" /><path
           style="fill:none;stroke:#800000;stroke-width:0.15;stroke-linecap:butt;stroke-linejoin:miter;stroke-opacity:1;stroke-dasharray:none"
           d="m 105.45586,49.24236 1.04486,-1.810038"
           id="path5366" /></g></g><g
       id="g5504"
       inkscape:label="body"><g
         id="g2491"
         transform="translate(-21.821238,-4.0538297)"
         style="display:inline"
         inkscape:label="rolls"><path
           id="path2369"
           style="fill:none;stroke:#000000;stroke-width:0.499999;stroke-linejoin:miter;stroke-miterlimit:4"
           d="m 111.23507,63.135164 -8.95811,5.171778 v 9.656775 l 8.95708,5.17126 h 2.75642 a 15,8 0 0 1 13.28653,-4.295862 15,8 0 0 1 13.29427,4.295862 h 2.74816 l 8.95759,-5.171777 v -9.655742 l -8.95863,-5.172294 h -2.75487 a 15,8 0 0 1 -13.28652,4.295862 15,8 0 0 1 -13.28653,-4.295862 z" /><path
           id="path2372"
           style="fill:none;stroke:#000000;stroke-width:0.499999;stroke-linejoin:miter;stroke-miterlimit:4"
           d="m 93.414111,52.268691 -1.6e-4,10.34384 8.363009,4.828387 8.957,-5.171428 1.37821,-2.38713 a 8,15 30 0 1 2.92293,-13.654404 8,15 30 0 1 10.36747,-9.365244 l 1.37408,-2.379976 -1e-4,-10.343389 -8.36212,-4.82787 -8.95865,5.172253 -1.37744,2.385787 a 8,15 30 0 1 -2.92293,13.654395 8,15 30 0 1 -10.363599,9.358541 z" /><path
           id="path2374"
           style="fill:none;stroke:#000000;stroke-width:0.499999;stroke-linejoin:miter;stroke-miterlimit:4"
           d="m 145.09751,24.484055 -8.95795,-5.172061 -8.36301,4.828387 1e-4,10.342689 1.37821,2.38713 a 15,8 60 0 1 10.36359,9.358541 15,8 60 0 1 2.92681,13.661107 l 1.37408,2.379976 8.95768,5.171612 8.36212,-4.827871 3e-5,-10.344548 -1.37744,-2.385788 a 15,8 60 0 1 -10.36359,-9.358532 15,8 60 0 1 -2.92293,-13.654404 z" /></g><g
         id="g2486"
         transform="translate(-21.821238,-4.0538297)"
         style="display:inline"
         inkscape:label="star"><path
           style="fill:none;stroke:#000000;stroke-width:0.264584px;stroke-linecap:butt;stroke-linejoin:miter;stroke-dasharray:2.11667, 0.529168, 0.264584, 0.529168;stroke-dashoffset:0;stroke-opacity:1"
           d="m 127.27703,53.296072 v 30"
           id="path2396" /><path
           style="fill:none;stroke:#000000;stroke-width:0.264584px;stroke-linecap:butt;stroke-linejoin:miter;stroke-dasharray:2.11667, 0.529168, 0.264584, 0.529168;stroke-dashoffset:0;stroke-opacity:1"
           d="M 127.27703,53.296073 153.25779,38.296075"
           id="path2449" /><path
           style="fill:none;stroke:#000000;stroke-width:0.264584px;stroke-linecap:butt;stroke-linejoin:miter;stroke-dasharray:2.11667, 0.529168, 0.264584, 0.529168;stroke-dashoffset:0;stroke-opacity:1"
           d="m 127.27703,53.296073 -25.98076,-15"
           id="path2451" /><path
           style="fill:none;stroke:#000000;stroke-width:0.264584px;stroke-linecap:butt;stroke-linejoin:miter;stroke-dasharray:2.11667, 0.529168, 0.264584, 0.529168;stroke-dashoffset:0;stroke-opacity:1"
           d="m 127.27703,53.296072 v 30"
           id="path479"
           transform="rotate(60,127.27703,53.296075)" /><path
           style="fill:none;stroke:#000000;stroke-width:0.264584px;stroke-linecap:butt;stroke-linejoin:miter;stroke-dasharray:2.11667, 0.529168, 0.264584, 0.529168;stroke-dashoffset:0;stroke-opacity:1"
           d="M 127.27703,53.296073 153.25779,38.296075"
           id="path481"
           transform="rotate(60,127.27703,53.296075)" /><path
           style="fill:none;stroke:#000000;stroke-width:0.264584px;stroke-linecap:butt;stroke-linejoin:miter;stroke-dasharray:2.11667, 0.529168, 0.264584, 0.529168;stroke-dashoffset:0;stroke-opacity:1"
           d="m 127.27703,53.296073 -25.98076,-15"
           id="path483"
           transform="rotate(60,127.27703,53.296075)" /></g><path
         id="path1041"
         style="display:inline;fill:none;fill-opacity:0.49653;stroke:#4d4d4d;stroke-width:0.200001;stroke-dasharray:none"
         d="m 122.2137,44.920007 a 17.288248,17.288498 0 0 0 -1.78587,-4.396514 17.288248,17.288498 0 0 0 -2.97134,-3.78751 16.207732,8.6442488 0 0 0 -0.18395,-0.114319 16.207732,8.6442488 0 0 0 -1.05398,-0.546887 16.207732,8.6442488 0 0 0 -1.14262,-0.493791 16.207732,8.6442488 0 0 0 -1.22248,-0.436707 16.207732,8.6442488 0 0 0 -1.29084,-0.375314 16.207732,8.6442488 0 0 0 -1.35006,-0.311475 16.207732,8.6442488 0 0 0 -1.39713,-0.245605 16.207732,8.6442488 0 0 0 -1.43325,-0.176391 16.207732,8.6442488 0 0 0 -1.45683,-0.106681 16.207732,8.6442488 0 0 0 -1.46933,-0.03564 16.207732,8.6442488 0 0 0 -1.46853,0.03611 16.207732,8.6442488 0 0 0 -1.45651,0.107189 16.207732,8.6442488 0 0 0 -1.4321,0.176269 16.207732,8.6442488 0 0 0 -1.396672,0.245441 16.207732,8.6442488 0 0 0 -1.348664,0.311854 16.207732,8.6442488 0 0 0 -1.290546,0.37566 16.207732,8.6442488 0 0 0 -1.221364,0.4363 16.207732,8.6442488 0 0 0 -1.141878,0.493569 16.207732,8.6442488 0 0 0 -1.053612,0.547063 16.207732,8.6442488 0 0 0 -0.19029,0.118223 17.288248,17.288498 0 0 0 -4.76647,8.249836 16.207908,8.6441552 60.000643 0 0 0.02519,1.03642 16.207908,8.6441552 60.000643 0 0 0.103848,1.125762 16.207908,8.6441552 60.000643 0 0 0.180404,1.163443 16.207908,8.6441552 60.000643 0 0 0.255193,1.192477 16.207908,8.6441552 60.000643 0 0 0.328772,1.213828 16.207908,8.6441552 60.000643 0 0 0.399532,1.225832 16.207908,8.6441552 60.000643 0 0 0.468054,1.229489 16.207908,8.6441552 60.000643 0 0 0.533063,1.22483 16.207908,8.6441552 60.000643 0 0 0.594088,1.212156 16.207908,8.6441552 60.000643 0 0 0.651273,1.189472 16.207908,8.6441552 60.000643 0 0 0.704456,1.158753 16.207908,8.6441552 60.000643 0 0 0.752419,1.120101 16.207908,8.6441552 60.000643 0 0 0.794192,1.074072 16.207908,8.6441552 60.000643 0 0 0.831003,1.020574 16.207908,8.6441552 60.000643 0 0 0.861826,0.958935 16.207908,8.6441552 60.000643 0 0 0.886521,0.891156 16.207908,8.6441552 60.000643 0 0 0.905384,0.817726 16.207908,8.6441552 60.000643 0 0 0.917072,0.737473 16.207908,8.6441552 60.000643 0 0 0.923002,0.652817 16.207908,8.6441552 60.000643 0 0 0.884964,0.540024 17.288248,17.288498 0 0 0 9.54444,-0.0076 8.6441552,16.207908 29.999357 0 0 0.17731,-0.0949 8.6441552,16.207908 29.999357 0 0 1.00056,-0.638945 8.6441552,16.207908 29.999357 0 0 0.99906,-0.743172 8.6441552,16.207908 29.999357 0 0 0.98901,-0.839877 8.6441552,16.207908 29.999357 0 0 0.97081,-0.930591 8.6441552,16.207908 29.999357 0 0 0.94509,-1.013105 8.6441552,16.207908 29.999357 0 0 0.91061,-1.087342 8.6441552,16.207908 29.999357 0 0 0.86939,-1.153158 8.6441552,16.207908 29.999357 0 0 0.82127,-1.208563 8.6441552,16.207908 29.999357 0 0 0.76496,-1.254726 8.6441552,16.207908 29.999357 0 0 0.70359,-1.289558 8.6441552,16.207908 29.999357 0 0 0.63554,-1.314743 8.6441552,16.207908 29.999357 0 0 0.56291,-1.328886 8.6441552,16.207908 29.999357 0 0 0.48564,-1.332016 8.6441552,16.207908 29.999357 0 0 0.4046,-1.323893 8.6441552,16.207908 29.999357 0 0 0.31991,-1.305293 8.6441552,16.207908 29.999357 0 0 0.23237,-1.276027 8.6441552,16.207908 29.999357 0 0 0.14395,-1.235953 8.6441552,16.207908 29.999357 0 0 0.0529,-1.185949 8.6441552,16.207908 29.999357 0 0 -0.01,-0.29209 z"
         inkscape:transform-center-x="-0.00032607472"
         inkscape:transform-center-y="0.92633244"
         inkscape:label="in_profile" /></g><g
       id="g6770"
       inkscape:label="wL"><path
         style="fill:none;stroke:#000000;stroke-width:0.15;stroke-linecap:butt;stroke-linejoin:miter;stroke-opacity:1;stroke-dasharray:none"
         d="m 95.440867,61.328765 v 9.742111"
         id="path5608" /><path
         style="fill:none;stroke:#000000;stroke-width:0.15;stroke-linecap:butt;stroke-linejoin:miter;stroke-opacity:1;stroke-dasharray:none"
         d="m 115.4741,61.327101 v 9.742111"
         id="path5634" /><path
         style="fill:none;stroke:#000000;stroke-width:0.15;stroke-linecap:butt;stroke-linejoin:miter;stroke-opacity:1;stroke-dasharray:none;marker-start:url(#TriangleStart);marker-end:url(#marker5084)"
         d="M 95.440867,70.117559 H 115.4741"
         id="path5676" /><g
         inkscape:label="wL"
         transform="translate(106.98034,70.904778)"
         id="g6331"><g
   fill="#000000"
   fill-opacity="1"
   id="g19"
   transform="matrix(0.352778,0,0,0.352778,-0.137804,0.0533135)">
    <g
   id="use17"
   transform="translate(0,6.177)">
      <path
   d="m 4.9375,-0.875 c 0.3125,0.859375 1.203125,1.015625 1.75,1.015625 1.09375,0 1.734375,-0.9375 2.140625,-1.9375 C 9.15625,-2.625 9.6875,-4.515625 9.6875,-5.359375 c 0,-0.875 -0.453125,-0.96875 -0.578125,-0.96875 -0.34375,0 -0.65625,0.34375 -0.65625,0.640625 0,0.171875 0.09375,0.265625 0.171875,0.328125 0.125,0.125 0.5,0.515625 0.5,1.25 0,0.5 -0.40625,1.84375 -0.703125,2.515625 -0.40625,0.875 -0.9375,1.453125 -1.6875,1.453125 C 5.9375,-0.140625 5.6875,-0.75 5.6875,-1.40625 c 0,-0.421875 0.125,-0.921875 0.171875,-1.15625 L 6.46875,-4.984375 c 0.078125,-0.28125 0.203125,-0.78125 0.203125,-0.84375 C 6.671875,-6.03125 6.5,-6.1875 6.28125,-6.1875 c -0.421875,0 -0.515625,0.359375 -0.59375,0.703125 -0.15625,0.5625 -0.75,2.984375 -0.8125,3.296875 -0.0625,0.25 -0.0625,0.40625 -0.0625,0.71875 0,0.34375 -0.453125,0.890625 -0.46875,0.921875 -0.15625,0.15625 -0.390625,0.40625 -0.828125,0.40625 C 2.375,-0.140625 2.375,-1.21875 2.375,-1.46875 c 0,-0.453125 0.109375,-1.078125 0.75,-2.796875 0.171875,-0.4375 0.25,-0.625 0.25,-0.90625 0,-0.609375 -0.4375,-1.15625 -1.140625,-1.15625 -1.3125,0 -1.84375,2.078125 -1.84375,2.203125 0,0.046875 0.046875,0.125 0.15625,0.125 0.125,0 0.140625,-0.0625 0.203125,-0.265625 0.359375,-1.25 0.90625,-1.765625 1.4375,-1.765625 0.15625,0 0.375,0 0.375,0.46875 0,0.0625 0,0.375 -0.234375,1 C 1.65625,-2.765625 1.5,-2.1875 1.5,-1.640625 c 0,1.515625 1.234375,1.78125 1.96875,1.78125 0.25,0 0.890625,0 1.46875,-1.015625 z m 0,0"
   id="path31" />
    </g>
  </g>
  
<g
   fill="#000000"
   fill-opacity="1"
   id="g23"
   transform="matrix(0.35277801,0,0,0.35277801,-0.1378036,0.05331235)">
      <g
   id="use21"
   transform="translate(10.041,8.3290005)">
        <path
   d="m 5.796875,-2.578125 h -0.25 c -0.109375,1.015625 -0.25,2.265625 -2,2.265625 h -0.8125 C 2.265625,-0.3125 2.25,-0.375 2.25,-0.703125 v -5.3125 C 2.25,-6.359375 2.25,-6.5 3.1875,-6.5 H 3.515625 V -6.8125 C 3.15625,-6.78125 2.25,-6.78125 1.84375,-6.78125 c -0.390625,0 -1.171875,0 -1.515625,-0.03125 V -6.5 H 0.5625 c 0.765625,0 0.796875,0.109375 0.796875,0.46875 v 5.25 c 0,0.359375 -0.03125,0.46875 -0.796875,0.46875 H 0.328125 V 0 h 5.1875 z m 0,0"
   id="path35" />
      </g>
    </g></g></g></g></svg>
